# xmcd
# 
# Track frame offsets:
#     150
#     22345
#     41319
#     60312
#     80710
#     102212
#     123516
#     142662
#     157515
#     177975
#     199717
#     216866
#     236270
#     253604
#     273326
# 
# Disc length: 3905
# 
# Revision: 2
# Processed by: cddbd v1.5.1PL2 Copyright (c) Steve Scherf et al.
# Submitted via: BonkEnc v1.0beta3
# 
DISCID=c00f3f0f
DTITLE=Various Artist - Hit Style
DYEAR=2006
DGENRE=JPop
TTITLE0=中島美嘉/桜色舞うころ
TTITLE1=nobodyknows+/ココロオドル
TTITLE2=橘子新樂團/花
TTITLE3=RYTHEM/万華鏡キラキラ
TTITLE4=サンボマスター/青春狂騒曲
TTITLE5=SOUL'd OUT 1,000,000MONSTERS ATTACK
TTITLE6=Sowelu/I Will
TTITLE7=T.M.Revolution/ignited -イグナイテッド-
TTITLE8=高橋瞳/僕たちの行方
TTITLE9=玉置成実/Reason
TTITLE10=Tommy february6/L.O.V.E.L.Y〜夢見るLOVELY BOY〜
TTITLE11=TUBE/夏祭り
TTITLE12=YUI/feel my soul
TTITLE13=YUKI/JOY
TTITLE14=ZONE/glory colors 〜風のトビラ〜
EXTD=YEAR: 2006
EXTT0=
EXTT1=
EXTT2=
EXTT3=
EXTT4=
EXTT5=
EXTT6=
EXTT7=
EXTT8=
EXTT9=
EXTT10=
EXTT11=
EXTT12=
EXTT13=
EXTT14=
PLAYORDER=
